<?xml version="1.0" standalone="no"?>
<!DOCTYPE svg PUBLIC "-//W3C//DTD SVG 20010904//EN"
 "http://www.w3.org/TR/2001/REC-SVG-20010904/DTD/svg10.dtd">
<svg version="1.0" xmlns="http://www.w3.org/2000/svg"
 width="1024.000000pt" height="1024.000000pt" viewBox="0 0 1024.000000 1024.000000"
 preserveAspectRatio="xMidYMid meet">

<g transform="translate(0.000000,1024.000000) scale(0.100000,-0.100000)"
fill="#000000" stroke="none">
<path d="M0 5120 l0 -5120 5120 0 5120 0 0 4765 0 4765 -60 0 c-47 0 -60 3
-60 15 0 12 -17 15 -89 15 -106 0 -151 8 -151 26 0 8 -9 14 -20 14 -13 0 -20
7 -20 20 0 17 -7 20 -40 20 -32 0 -40 4 -40 19 0 19 -34 31 -91 31 -19 0 -29
5 -29 15 0 22 -40 19 -40 -2 -1 -15 -5 -13 -24 8 -36 41 -59 49 -140 49 -44 0
-76 4 -76 10 0 6 -9 10 -20 10 -11 0 -20 5 -20 10 0 6 -9 10 -20 10 -13 0 -20
7 -20 20 0 17 -7 20 -40 20 -33 0 -40 3 -40 20 0 16 -7 20 -35 20 -20 0 -54 9
-77 21 -30 15 -43 18 -48 9 -6 -9 -13 -9 -26 -1 -18 10 -18 10 4 11 15 0 22 6
22 20 0 18 -7 20 -80 20 -73 0 -80 2 -80 20 0 13 7 20 20 20 13 0 20 7 20 20
0 13 -7 20 -20 20 -13 0 -20 -7 -20 -20 0 -13 -7 -20 -20 -20 -13 0 -20 7 -20
20 0 13 -7 20 -20 20 -13 0 -20 7 -20 20 0 17 -7 20 -40 20 -33 0 -40 3 -40
20 0 13 -7 20 -20 20 -13 0 -20 7 -20 19 0 15 -10 21 -40 26 -25 4 -40 12 -40
21 0 8 -9 14 -20 14 -13 0 -20 7 -20 20 0 20 -7 20 -4280 20 l-4280 0 0 -5120z
m8627 5034 c-3 -3 -12 -4 -19 -1 -8 3 -5 6 6 6 11 1 17 -2 13 -5z m733 -404
c0 -5 -9 -10 -20 -10 -11 0 -20 5 -20 10 0 6 9 10 20 10 11 0 20 -4 20 -10z
m-4060 -2156 c159 -105 343 -285 447 -436 206 -298 304 -639 290 -1008 -9
-225 -49 -405 -126 -560 -16 -32 -27 -61 -23 -64 3 -3 1 -6 -5 -6 -6 0 -30
-30 -54 -67 -24 -37 -87 -111 -139 -163 -139 -141 -573 -482 -536 -421 3 5 -2
8 -12 7 -11 0 -18 7 -20 22 -2 12 -8 22 -13 22 -5 0 -9 9 -9 20 0 13 -7 20
-20 20 -17 0 -20 7 -20 40 0 22 -4 40 -10 40 -5 0 -10 -9 -10 -21 0 -11 -4
-17 -10 -14 -5 3 -10 24 -10 47 0 33 -3 39 -16 34 -16 -6 -43 18 -43 39 0 6 4
2 10 -7 5 -10 15 -18 20 -18 6 0 3 10 -5 21 -17 25 -2 61 22 51 9 -3 13 -1 9
5 -3 5 21 34 54 64 247 220 379 405 429 603 20 79 28 236 12 236 -4 0 -18 -20
-30 -45 -12 -25 -27 -45 -32 -45 -6 0 -9 -4 -6 -9 3 -5 -1 -14 -8 -20 -12 -10
-14 -9 -10 6 3 11 -6 31 -20 48 -14 17 -26 26 -26 22 0 -13 -24 14 -45 51 -11
17 -25 32 -32 32 -6 0 -18 9 -26 20 -13 19 -21 12 -155 -123 -77 -78 -168
-176 -203 -217 -34 -41 -66 -77 -71 -78 -4 -2 -6 -8 -3 -12 9 -15 -37 -41 -51
-29 -9 7 -15 5 -22 -8 -21 -36 -21 -4 -1 56 30 95 63 163 113 240 25 39 52 84
61 101 9 17 35 57 59 88 98 130 227 366 265 482 53 164 65 239 64 395 0 218
-45 416 -128 573 -22 42 -28 62 -18 58 8 -3 59 -36 113 -72z m-548 -842 c-39
-63 -58 -121 -67 -197 -3 -33 -11 -85 -17 -115 l-10 -54 -12 29 -12 29 -50
-47 c-53 -52 -91 -68 -105 -46 -12 20 -29 104 -29 144 0 33 -1 34 -25 25 -14
-5 -25 -7 -25 -4 0 11 -47 -51 -64 -84 -10 -19 -21 -61 -25 -95 -7 -62 -8 -62
-15 -24 -5 21 -7 75 -4 120 5 97 37 168 101 223 42 35 169 104 227 123 36 11
152 29 159 25 2 -2 -10 -25 -27 -52z m1789 -972 c269 -267 426 -516 529 -835
115 -360 119 -800 9 -1170 -12 -41 -26 -72 -30 -69 -5 3 -6 -2 -3 -10 4 -11 0
-16 -14 -16 -11 0 -23 -6 -25 -12 -3 -8 -6 -6 -6 5 -1 11 -18 25 -46 37 -25
11 -48 26 -51 35 -4 8 -14 15 -23 15 -21 0 -45 53 -36 81 4 12 3 24 -3 28 -7
4 -5 25 4 61 53 199 80 491 52 554 -16 35 -105 81 -175 91 -29 4 -54 12 -55
18 -1 7 -4 -58 -8 -143 -7 -159 -25 -290 -41 -290 -5 0 -9 9 -9 20 0 11 -7 23
-15 26 -8 4 -15 12 -15 19 0 8 -9 16 -19 20 -10 3 -21 15 -24 25 -3 11 -12 20
-21 20 -10 0 -16 9 -16 25 0 52 -59 83 -61 31 0 -11 -13 20 -28 70 -29 96 -83
217 -132 297 l-29 48 19 37 c10 20 30 75 45 122 95 315 84 701 -28 1029 -15
41 -26 76 -26 78 0 15 151 -117 281 -247z m-1991 87 c0 -2 -20 -39 -45 -83
-58 -101 -80 -160 -101 -271 -21 -114 -15 -291 14 -378 l19 -60 -47 -55 c-101
-119 -167 -244 -193 -365 -9 -39 -16 -65 -16 -59 -1 6 -7 11 -15 11 -40 0 -72
25 -85 66 -48 152 -53 189 -48 332 2 77 8 149 12 160 5 15 4 16 -3 6 -8 -11
-12 -10 -21 6 -6 12 -21 23 -35 27 -26 6 -40 47 -22 67 8 9 7 10 -4 4 -13 -8
-13 -7 -1 8 22 28 5 31 -61 13 -92 -26 -174 -73 -250 -145 -53 -50 -69 -60
-74 -47 -3 9 -10 13 -15 10 -20 -12 -6 24 58 149 64 126 73 138 188 253 159
160 290 243 488 309 90 30 257 57 257 42z m201 -244 c-12 -20 -14 -14 -5 12 4
9 9 14 11 11 3 -2 0 -13 -6 -23z m-14 -55 c-3 -7 -5 -2 -5 12 0 14 2 19 5 13
2 -7 2 -19 0 -25z m1312 -236 c13 -168 -9 -314 -70 -472 -17 -44 -33 -80 -36
-80 -3 0 -2 8 2 17 4 13 -7 29 -42 60 -26 24 -53 43 -60 43 -6 0 -16 23 -22
50 -14 67 -14 80 4 86 8 4 15 10 15 15 0 5 21 41 48 81 54 83 109 216 126 300
14 78 24 50 35 -100z m-2481 -268 c-14 -14 -15 -14 -10 11 3 19 8 23 15 16 8
-8 7 -16 -5 -27z m1572 -214 c0 -5 -2 -10 -4 -10 -3 0 -8 5 -11 10 -3 6 -1 10
4 10 6 0 11 -4 11 -10z m-963 -292 c-3 -8 -6 -5 -6 6 -1 11 2 17 5 13 3 -3 4
-12 1 -19z m10 -75 c-3 -10 -5 -4 -5 12 0 17 2 24 5 18 2 -7 2 -21 0 -30z
m1926 -154 c19 -65 22 -95 21 -244 -1 -123 -6 -185 -17 -225 l-16 -55 4 58 c3
35 1 57 -5 57 -5 0 -10 -5 -10 -10 0 -38 -137 -202 -205 -246 -39 -26 -88 -30
-105 -9 -8 9 -32 26 -54 37 -23 12 -57 34 -76 49 -19 16 -40 29 -46 29 -6 0
-19 9 -29 20 -10 11 -31 20 -47 20 -15 0 -28 5 -28 11 0 5 -3 8 -7 6 -5 -3
-12 0 -18 7 -12 14 -20 45 -9 34 4 -4 15 2 25 14 11 11 19 18 19 14 0 -4 15 4
33 17 17 13 39 27 47 30 41 18 206 128 254 169 72 63 168 184 201 253 17 36
30 54 36 48 5 -5 20 -43 32 -84z m344 -101 c-3 -8 -6 -5 -6 6 -1 11 2 17 5 13
3 -3 4 -12 1 -19z m-2882 -118 c30 -98 101 -224 200 -355 33 -44 34 -47 9 -24
-68 61 -78 69 -84 69 -4 0 -20 11 -36 25 -16 14 -37 24 -46 21 -12 -3 -18 2
-19 12 -1 10 -4 6 -8 -8 -7 -22 -9 -18 -20 30 -15 66 -31 216 -30 285 1 54 0
55 34 -55z m22 -312 c-3 -8 -6 -5 -6 6 -1 11 2 17 5 13 3 -3 4 -12 1 -19z"/>
<path d="M6432 4390 c0 -14 2 -19 5 -12 2 6 2 18 0 25 -3 6 -5 1 -5 -13z"/>
</g>
</svg>
